<svg xmlns="http://www.w3.org/2000/svg" viewBox="0 0 410.88 91.8"><defs><style>.cls-1{fill:#f3828c;}</style></defs><g id="Слой_2" data-name="Слой 2"><g id="Слой_1-2" data-name="Слой 1"><path class="cls-1" d="M60,50a1.42,1.42,0,0,1-2.52.88L21.82,6.54a18.44,18.44,0,0,0-6-4.79A19.27,19.27,0,0,0,7.09,0H0V2.18H1.09q5.67,0,7.75,3a13.68,13.68,0,0,1,2.07,7.91V72h4.36V18.74a1.42,1.42,0,0,1,2.52-.88L62.18,73.09h2.18V0H60Z"/><path class="cls-1" d="M225.31,69.06q-2.52-5.69-2.51-15.61V0H213L188.62,53.9a1.42,1.42,0,0,1-2.58,0L161.16,0H150.8V72h4.36V16.82a1.41,1.41,0,0,1,2.7-.59L183.53,72h2.18l24.57-54.54A1.41,1.41,0,0,1,213,18V53.45A51.9,51.9,0,0,0,213.91,64a17.06,17.06,0,0,0,3.21,7.31,13.45,13.45,0,0,0,6.23,4.19,30.14,30.14,0,0,0,9.81,1.37V74.73C229.6,74.73,227,72.83,225.31,69.06Z"/><path class="cls-1" d="M295.47,40.91a61.41,61.41,0,0,1-1.09,12.43A21.27,21.27,0,0,1,290.67,62a15.31,15.31,0,0,1-6.87,5.07,29.37,29.37,0,0,1-10.48,1.64,21.43,21.43,0,0,1-9.1-1.7,14.88,14.88,0,0,1-6-4.85A20.46,20.46,0,0,1,255,54.49a49.19,49.19,0,0,1-1-10.31V13.09a40.72,40.72,0,0,0-.44-6.6,9,9,0,0,0-1.58-4,5.51,5.51,0,0,0-3.06-2A19.22,19.22,0,0,0,244.2,0h-9.82V2.18h2.18q4.91,0,6.28,3a19.49,19.49,0,0,1,1.36,7.91V40.91a64.25,64.25,0,0,0,1.36,14A24.71,24.71,0,0,0,250.14,65a19.43,19.43,0,0,0,8.57,6,37.83,37.83,0,0,0,13.3,2,39.83,39.83,0,0,0,13.8-2,18.73,18.73,0,0,0,8.52-6,23.94,23.94,0,0,0,4.3-10.09,72.77,72.77,0,0,0,1.2-14V0h-4.36Z"/><path class="cls-1" d="M137.83,67a12.92,12.92,0,0,1-2.63-3.43c-.74-1.44-1.55-3.12-2.43-5.18L108.75,0h-3.24l-11,26.08L91.1,34l-.32.75-.68,1.5L74.94,72h4.93L88.6,51.25l1.62-4.37,1.31-3A19,19,0,0,0,98.9,54.24c3.74,2.5,7.92,3.12,12,3.75,1.31.18,2.56.37,3.81.62a18,18,0,0,1,7.11,3.23c2.21,1.63,3.87,3.79,5.88,5.63a21,21,0,0,0,3.42,2.75,14.19,14.19,0,0,0,5,1.87,24,24,0,0,0,4.37.43,17,17,0,0,0,4.3-.5V69.84a15.84,15.84,0,0,1-3.87-.87A9.65,9.65,0,0,1,137.83,67ZM115.55,54.31c-1.31-.25-2.68-.5-4-.69-3.74-.56-7.3-1.12-10.23-3.06a15,15,0,0,1-6.12-10.35,14.76,14.76,0,0,1,.32-5.49l2.55-6.12L99,26.73v-.06l3.55-8.3a1.41,1.41,0,0,1,2.62,0l6.18,15L117,46.88l1.81,4.24,2.06,4.93A21.78,21.78,0,0,0,115.55,54.31Z"/><path class="cls-1" d="M395,66.06q-2.52-5.67-2.51-15.6V0h-9.82l0,.08V17.94s0,.06,0,.1V50.46A52.65,52.65,0,0,0,383.55,61a17.19,17.19,0,0,0,3.22,7.31,13.54,13.54,0,0,0,6.23,4.2,30.12,30.12,0,0,0,9.81,1.36V71.73Q397.47,71.73,395,66.06Z"/><path class="cls-1" d="M409.59,81.78c-7.65,4.07-16.19,4.7-23,1.41a27.24,27.24,0,0,1-10.35-9,116.82,116.82,0,0,1-8-13.42,128.66,128.66,0,0,0-8.92-14.47,47.33,47.33,0,0,0-6.24-6.61,25,25,0,0,0-2.93-2.25,20.39,20.39,0,0,0,3.68-1.06A21.16,21.16,0,0,0,359.49,33a16.62,16.62,0,0,0,4.18-5.37,18.18,18.18,0,0,0,1.62-8c0-4.37-1-7.8-2.93-10.42a20.54,20.54,0,0,0-7.18-5.93,30.59,30.59,0,0,0-9-2.68A71,71,0,0,0,338,0H309.64V2.15h2.18c3.31,0,5.37,1.06,6.3,3.06a19.57,19.57,0,0,1,1.38,7.86V72h9.79V43.33a.06.06,0,0,1,.06-.07c3.69-2.49,8.8-2.49,12.61-.93,3.37,1.49,6.92,5.43,9.54,9.54a134.32,134.32,0,0,1,7.8,13.73c2.75,4.74,5.49,9.73,9.3,14.41s9.11,8.86,15.22,10.61A26.84,26.84,0,0,0,402,89.74a26,26,0,0,0,8.84-6.22ZM329.29,4.89c1.13-.24,2.37-.56,3.87-.74a25.89,25.89,0,0,1,4.3-.32,16.49,16.49,0,0,1,5.18.88,19.93,19.93,0,0,1,5.56,2.68,15.27,15.27,0,0,1,4.36,4.93,13.77,13.77,0,0,1,1.81,7.3,12.61,12.61,0,0,1-1.81,7.05c-4.07,6.32-11.78,8.09-18.63,9.72-2.5.59-4.64,1.17-4.64,1.46Z"/></g></g></svg>