<svg xmlns="http://www.w3.org/2000/svg" viewBox="0 0 410.88 274.67"><defs><style>.cls-1{fill:#f3828c;}.cls-2{fill:none;stroke:#fff;stroke-linejoin:round;stroke-width:4.06px;fill-rule:evenodd;}.cls-3{fill:#f9b4b0;}.cls-4{fill:#53bda5;}</style></defs><g id="Слой_2" data-name="Слой 2"><g id="Слой_1-2" data-name="Слой 1"><path class="cls-1" d="M60,232.85a1.42,1.42,0,0,1-2.52.88L21.82,189.4a18.44,18.44,0,0,0-6-4.79,19.27,19.27,0,0,0-8.78-1.75H0V185H1.09q5.67,0,7.75,3A13.68,13.68,0,0,1,10.91,196v58.91h4.36V201.61a1.42,1.42,0,0,1,2.52-.89L62.18,256h2.18V182.86H60Z"/><path class="cls-1" d="M225.31,251.92q-2.52-5.68-2.51-15.61V182.86H213l-24.36,53.9a1.42,1.42,0,0,1-2.58,0l-24.88-53.91H150.8v72h4.36V199.68a1.42,1.42,0,0,1,2.7-.59l25.67,55.77h2.18l24.57-54.54a1.41,1.41,0,0,1,2.7.58v35.41a51.9,51.9,0,0,0,.93,10.59,17.06,17.06,0,0,0,3.21,7.31,13.54,13.54,0,0,0,6.23,4.2,30.44,30.44,0,0,0,9.81,1.36v-2.18C229.6,257.59,227,255.69,225.31,251.92Z"/><path class="cls-1" d="M295.47,223.77a61.41,61.41,0,0,1-1.09,12.43,21.21,21.21,0,0,1-3.71,8.68A15.31,15.31,0,0,1,283.8,250a29.37,29.37,0,0,1-10.48,1.64,21.43,21.43,0,0,1-9.1-1.7,14.88,14.88,0,0,1-6-4.85,20.46,20.46,0,0,1-3.27-7.69A49.19,49.19,0,0,1,254,227V196a40.72,40.72,0,0,0-.44-6.6,9,9,0,0,0-1.58-4,5.51,5.51,0,0,0-3.06-2,19.22,19.22,0,0,0-4.74-.49h-9.82V185h2.18q4.91,0,6.28,3A19.49,19.49,0,0,1,244.2,196v27.82a64.19,64.19,0,0,0,1.36,14,24.71,24.71,0,0,0,4.58,10.09,19.43,19.43,0,0,0,8.57,6.05,37.83,37.83,0,0,0,13.3,2,39.83,39.83,0,0,0,13.8-2,18.73,18.73,0,0,0,8.52-6.05,23.94,23.94,0,0,0,4.3-10.09,72.7,72.7,0,0,0,1.2-14V182.86h-4.36Z"/><path class="cls-1" d="M137.83,249.83a12.76,12.76,0,0,1-2.63-3.43c-.74-1.43-1.55-3.12-2.43-5.18l-24-58.33h-3.24L94.47,209l-3.37,7.92-.32.75-.68,1.5L74.94,254.89h4.93l8.73-20.78,1.62-4.37,1.31-3A19,19,0,0,0,98.9,237.1c3.74,2.5,7.92,3.12,12,3.75,1.31.19,2.56.37,3.81.62a18,18,0,0,1,7.11,3.23c2.21,1.63,3.87,3.79,5.88,5.63a21,21,0,0,0,3.42,2.75,14.19,14.19,0,0,0,5,1.87,24,24,0,0,0,4.37.43,17.49,17.49,0,0,0,4.3-.49V252.7a15.39,15.39,0,0,1-3.87-.87A9.48,9.48,0,0,1,137.83,249.83Zm-22.28-12.66c-1.31-.25-2.68-.5-4-.69-3.74-.56-7.3-1.12-10.23-3.06a15,15,0,0,1-6.12-10.35,14.76,14.76,0,0,1,.32-5.49l2.55-6.12.88-1.87v-.06l3.55-8.3a1.41,1.41,0,0,1,2.62,0l6.18,15L117,229.74,118.8,234l2.06,4.92A22.21,22.21,0,0,0,115.55,237.17Z"/><path class="cls-1" d="M395,248.92q-2.52-5.67-2.51-15.6V182.86h-9.82l0,.08V200.8s0,.06,0,.1v32.42a52.65,52.65,0,0,0,.92,10.58,17.14,17.14,0,0,0,3.22,7.31,13.54,13.54,0,0,0,6.23,4.2,30.12,30.12,0,0,0,9.81,1.36v-2.18Q397.47,254.59,395,248.92Z"/><path class="cls-1" d="M409.59,264.64c-7.65,4.07-16.19,4.7-23,1.41a27.24,27.24,0,0,1-10.35-9,116.82,116.82,0,0,1-8-13.42,128.66,128.66,0,0,0-8.92-14.47,47.33,47.33,0,0,0-6.24-6.61,25,25,0,0,0-2.93-2.25,20.39,20.39,0,0,0,3.68-1.06,20.9,20.9,0,0,0,5.68-3.37,16.68,16.68,0,0,0,4.18-5.36,18.26,18.26,0,0,0,1.62-8c0-4.37-1-7.8-2.93-10.42a20.54,20.54,0,0,0-7.18-5.93,30.59,30.59,0,0,0-9-2.68,71,71,0,0,0-8.17-.56H309.64V185h2.18c3.31,0,5.37,1.06,6.3,3.06a19.57,19.57,0,0,1,1.38,7.86v59h9.79v-28.7a.06.06,0,0,1,.06-.07c3.69-2.49,8.8-2.49,12.61-.93,3.37,1.5,6.92,5.43,9.54,9.54a134.32,134.32,0,0,1,7.8,13.73c2.75,4.74,5.49,9.73,9.3,14.41s9.11,8.86,15.22,10.61A26.84,26.84,0,0,0,402,272.6a26,26,0,0,0,8.84-6.22Zm-80.3-76.88a37.09,37.09,0,0,1,3.87-.75,25.84,25.84,0,0,1,4.3-.31,16.45,16.45,0,0,1,5.18.87,19.93,19.93,0,0,1,5.56,2.68,15.27,15.27,0,0,1,4.36,4.93,13.77,13.77,0,0,1,1.81,7.3,12.58,12.58,0,0,1-1.81,7.05c-4.07,6.32-11.78,8.1-18.63,9.72-2.5.59-4.64,1.17-4.64,1.46Z"/><path class="cls-2" d="M259.35,62.25a27,27,0,0,0,0-38.17h0a27,27,0,0,0-38.17,0c-14,14-16.35,54.46-16.35,54.46l0,0S245.31,76.29,259.35,62.25Z"/><path class="cls-2" d="M150.34,96.17a27,27,0,0,0,0,38.17h0a27,27,0,0,0,38.17,0c14-14,16.35-54.47,16.35-54.47l0,0S164.38,82.13,150.34,96.17Z"/><path class="cls-2" d="M221.21,134.31a27,27,0,0,0,38.17,0h0a27,27,0,0,0,0-38.17c-14-14-54.47-16.35-54.47-16.35l0,0S207.17,120.27,221.21,134.31Z"/><path class="cls-2" d="M188.48,24.11a27,27,0,0,0-38.17,0h0a27,27,0,0,0,0,38.17c14,14,54.47,16.35,54.47,16.35l0,0S202.52,38.15,188.48,24.11Z"/><path class="cls-2" d="M178.47,52.11a27,27,0,0,0,27,27h0a27,27,0,0,0,27-27C232.41,32.25,205.46,2,205.46,2h0S178.47,32.25,178.47,52.11Z"/><path class="cls-2" d="M232.41,106.31a27,27,0,0,0-27-27h0a27,27,0,0,0-27,27c0,19.86,26.95,50.08,26.95,50.08h0S232.41,126.17,232.41,106.31Z"/><path class="cls-2" d="M232.54,52.24a27,27,0,0,0-27,27h0a27,27,0,0,0,27,27c19.86,0,50.08-26.95,50.08-26.95v0S252.4,52.24,232.54,52.24Z"/><path class="cls-2" d="M178.34,106.18a27,27,0,0,0,27-27h0a27,27,0,0,0-27-27c-19.86,0-50.08,26.95-50.08,26.95v0S158.48,106.18,178.34,106.18Z"/><path class="cls-1" d="M240.31,18.24A24.81,24.81,0,0,1,259,59.51c-8.1-4.74-16.94-8.63-24.67-9.17-.57-8.2-4.91-17.65-10-26.13A24.87,24.87,0,0,1,240.31,18.24Z"/><path class="cls-3" d="M234.32,104a29,29,0,0,0-10-19.71c11.07,2,24.14,5.57,31.7,11.63C248.73,100.14,241,103.5,234.32,104Z"/><path class="cls-3" d="M221.27,131.3c-6.88-8.29-10.59-23.67-12.5-35.51a29,29,0,0,0,21.49,12.3C229.69,115.22,225.87,123.59,221.27,131.3Z"/><path class="cls-3" d="M180.62,108.09a29,29,0,0,0,20-10.3c-1.92,11.13-5.38,24.72-11.46,32.7C184.73,123,181.17,115,180.62,108.09Z"/><path class="cls-3" d="M154.17,95.53c8-6.08,21.56-9.54,32.68-11.46a29,29,0,0,0-10.29,20C169.68,103.48,161.65,99.92,154.17,95.53Z"/><path class="cls-3" d="M176.56,54.39a29,29,0,0,0,10.3,20c-11.13-1.92-24.72-5.38-32.7-11.46C161.65,58.5,169.68,54.94,176.56,54.39Z"/><path class="cls-3" d="M189.12,27.94c6.08,8,9.54,21.56,11.46,32.68a29,29,0,0,0-20-10.29C181.17,43.45,184.74,35.42,189.12,27.94Z"/><path class="cls-3" d="M230.26,50.33a29,29,0,0,0-21.49,12.31c1.91-11.85,5.61-27.23,12.5-35.52C225.87,34.83,229.69,43.2,230.26,50.33Z"/><path class="cls-1" d="M213,75.79c-2.05.24-3.79.42-5.15.54a24.87,24.87,0,0,1,22.29-21.82A24.89,24.89,0,0,1,213,75.79Z"/><path class="cls-1" d="M230.14,103.91a24.88,24.88,0,0,1-22.29-21.82c1.35.12,3.09.3,5.14.54A24.88,24.88,0,0,1,230.14,103.91Z"/><path class="cls-1" d="M198.59,82.41c1.62-.17,3-.31,4-.39-.08,1-.22,2.42-.39,4a24.9,24.9,0,0,1-21.5,17.85A24.9,24.9,0,0,1,198.59,82.41Z"/><path class="cls-1" d="M180.74,54.51a24.9,24.9,0,0,1,21.5,17.85c.17,1.62.3,3,.39,4-1-.09-2.42-.22-4-.39A24.9,24.9,0,0,1,180.74,54.51Z"/><path class="cls-3" d="M234.32,54.39c6.66.53,14.41,3.88,21.69,8.08-7.56,6.06-20.63,9.61-31.7,11.62A28.93,28.93,0,0,0,234.32,54.39Z"/><path class="cls-1" d="M151.74,25.51a24.87,24.87,0,0,1,34.48-.64c-4.95,8.31-9.09,17.48-9.64,25.47-8,.55-17.17,4.69-25.48,9.65A25,25,0,0,1,151.74,25.51Z"/><path class="cls-1" d="M151.74,132.91a25,25,0,0,1-.64-34.48c8.31,4.95,17.48,9.09,25.48,9.64.55,8,4.69,17.17,9.64,25.48A25,25,0,0,1,151.74,132.91Z"/><path class="cls-1" d="M258,132.91a25,25,0,0,1-33.68,1.3c5.13-8.48,9.47-17.93,10-26.14,7.73-.53,16.57-4.42,24.67-9.16A25,25,0,0,1,258,132.91Z"/><path class="cls-4" d="M205.44,5.12a184.13,184.13,0,0,1,13.61,18.4c-8,8.7-12.12,25.13-14.21,37.81-2-12.31-6-28.13-13.51-37A183.17,183.17,0,0,1,205.44,5.12Z"/><path class="cls-4" d="M150.55,65.09c9.84,8.33,28.23,12.31,40.87,14.12-12.64,1.81-31,5.78-40.87,14.11a184.27,184.27,0,0,1-19.2-14.11A181.45,181.45,0,0,1,150.55,65.09Z"/><path class="cls-4" d="M205.44,153.3a182.9,182.9,0,0,1-14.12-19.2c7.52-8.88,11.5-24.7,13.52-37,2.09,12.68,6.24,29.1,14.21,37.81A187,187,0,0,1,205.44,153.3Z"/><path class="cls-4" d="M259.65,93.76c-9.7-8.63-28.52-12.71-41.38-14.55,12.86-1.84,31.67-5.92,41.38-14.55a181,181,0,0,1,19.88,14.55A181,181,0,0,1,259.65,93.76Z"/></g></g></svg>