<svg width="181" height="48" viewBox="0 0 181 48" fill="none" xmlns="http://www.w3.org/2000/svg">
<rect width="181" height="48" fill="white"/>
<path d="M67.824 20.8H69.008V30.976H75.28V32H67.824V20.8ZM81.9231 32.096C80.8138 32.096 79.8058 31.8507 78.8991 31.36C78.0031 30.8587 77.2991 30.176 76.7871 29.312C76.2858 28.448 76.0351 27.4773 76.0351 26.4C76.0351 25.3227 76.2858 24.352 76.7871 23.488C77.2991 22.624 78.0031 21.9467 78.8991 21.456C79.8058 20.9547 80.8138 20.704 81.9231 20.704C83.0325 20.704 84.0298 20.9493 84.9151 21.44C85.8111 21.9307 86.5151 22.6133 87.0271 23.488C87.5391 24.352 87.7951 25.3227 87.7951 26.4C87.7951 27.4773 87.5391 28.4533 87.0271 29.328C86.5151 30.192 85.8111 30.8693 84.9151 31.36C84.0298 31.8507 83.0325 32.096 81.9231 32.096ZM81.9231 31.04C82.8085 31.04 83.6085 30.8427 84.3231 30.448C85.0378 30.0427 85.5978 29.488 86.0031 28.784C86.4085 28.0693 86.6111 27.2747 86.6111 26.4C86.6111 25.5253 86.4085 24.736 86.0031 24.032C85.5978 23.3173 85.0378 22.7627 84.3231 22.368C83.6085 21.9627 82.8085 21.76 81.9231 21.76C81.0378 21.76 80.2325 21.9627 79.5071 22.368C78.7925 22.7627 78.2271 23.3173 77.8111 24.032C77.4058 24.736 77.2031 25.5253 77.2031 26.4C77.2031 27.2747 77.4058 28.0693 77.8111 28.784C78.2271 29.488 78.7925 30.0427 79.5071 30.448C80.2325 30.8427 81.0378 31.04 81.9231 31.04ZM98.337 26.4H99.473V30.672C98.9503 31.1307 98.3317 31.4827 97.617 31.728C96.9023 31.9733 96.1503 32.096 95.361 32.096C94.241 32.096 93.233 31.8507 92.337 31.36C91.441 30.8693 90.737 30.192 90.225 29.328C89.713 28.4533 89.457 27.4773 89.457 26.4C89.457 25.3227 89.713 24.352 90.225 23.488C90.737 22.6133 91.441 21.9307 92.337 21.44C93.233 20.9493 94.2463 20.704 95.377 20.704C96.2303 20.704 97.0143 20.8427 97.729 21.12C98.4437 21.3867 99.0463 21.7867 99.537 22.32L98.801 23.072C97.9157 22.1973 96.7903 21.76 95.425 21.76C94.5183 21.76 93.697 21.9627 92.961 22.368C92.2357 22.7627 91.665 23.3173 91.249 24.032C90.833 24.736 90.625 25.5253 90.625 26.4C90.625 27.2747 90.833 28.064 91.249 28.768C91.665 29.472 92.2357 30.0267 92.961 30.432C93.6863 30.8373 94.5023 31.04 95.409 31.04C96.561 31.04 97.537 30.752 98.337 30.176V26.4ZM107.72 32.096C106.611 32.096 105.603 31.8507 104.696 31.36C103.8 30.8587 103.096 30.176 102.584 29.312C102.083 28.448 101.832 27.4773 101.832 26.4C101.832 25.3227 102.083 24.352 102.584 23.488C103.096 22.624 103.8 21.9467 104.696 21.456C105.603 20.9547 106.611 20.704 107.72 20.704C108.829 20.704 109.827 20.9493 110.712 21.44C111.608 21.9307 112.312 22.6133 112.824 23.488C113.336 24.352 113.592 25.3227 113.592 26.4C113.592 27.4773 113.336 28.4533 112.824 29.328C112.312 30.192 111.608 30.8693 110.712 31.36C109.827 31.8507 108.829 32.096 107.72 32.096ZM107.72 31.04C108.605 31.04 109.405 30.8427 110.12 30.448C110.835 30.0427 111.395 29.488 111.8 28.784C112.205 28.0693 112.408 27.2747 112.408 26.4C112.408 25.5253 112.205 24.736 111.8 24.032C111.395 23.3173 110.835 22.7627 110.12 22.368C109.405 21.9627 108.605 21.76 107.72 21.76C106.835 21.76 106.029 21.9627 105.304 22.368C104.589 22.7627 104.024 23.3173 103.608 24.032C103.203 24.736 103 25.5253 103 26.4C103 27.2747 103.203 28.0693 103.608 28.784C104.024 29.488 104.589 30.0427 105.304 30.448C106.029 30.8427 106.835 31.04 107.72 31.04Z" fill="black"/>
</svg>
