<svg width="13" height="13" viewBox="0 0 13 13" fill="none" xmlns="http://www.w3.org/2000/svg">
<g clip-path="url(#clip0)">
<path d="M8.36598 10.7263H2.32257C1.7555 10.7263 1.29492 10.2657 1.29492 9.69867V1.02757C1.29492 0.460497 1.7555 -8.01086e-05 2.32257 -8.01086e-05H8.36598C8.93305 -8.01086e-05 9.39363 0.460497 9.39363 1.02757V9.69867C9.39097 10.2657 8.93039 10.7263 8.36598 10.7263ZM8.67215 1.03023C8.67215 0.859841 8.53371 0.721401 8.36332 0.721401H2.31991C2.14952 0.721401 2.01108 0.859841 2.01108 1.03023V9.69867C2.01108 9.86906 2.14952 10.0075 2.31991 10.0075H8.36332C8.53371 10.0075 8.67215 9.86906 8.67215 9.69867V1.03023Z" fill="#A1A1A1"/>
<path d="M10.6775 13H4.63409C4.06702 13 3.60645 12.5394 3.60645 11.9724C3.60645 11.7727 3.76618 11.6129 3.96586 11.6129C4.16553 11.6129 4.32527 11.7727 4.32527 11.9724C4.32527 12.1427 4.46371 12.2812 4.63409 12.2812H10.6775C10.8479 12.2812 10.9863 12.1427 10.9863 11.9724V3.30125C10.9863 3.13086 10.8479 2.99242 10.6775 2.99242C10.4778 2.99242 10.3181 2.83269 10.3181 2.63301C10.3181 2.43334 10.4778 2.2736 10.6775 2.2736C11.2446 2.2736 11.7052 2.73418 11.7052 3.30125V11.9724C11.7052 12.5394 11.2446 13 10.6775 13Z" fill="#A1A1A1"/>
</g>
<defs>
<clipPath id="clip0">
<rect width="13" height="13" fill="white" transform="matrix(1 0 0 -1 0 13)"/>
</clipPath>
</defs>
</svg>
