<svg width="20" height="20" viewBox="0 0 20 20" fill="none" xmlns="http://www.w3.org/2000/svg">
<g clip-path="url(#clip0)">
<path d="M14.0287 3.57481H15.9857V0.00193047H12.4293C12.1326 -0.0104139 8.51609 -0.0795424 7.57874 3.49499C7.56516 3.53243 7.2656 4.38255 7.2656 6.36835L4.01367 6.37823V10.1256L7.26972 10.1161V20.0003H12.2433V10.1248H15.5351V6.36753H12.2433V5.18535C12.2433 4.45044 12.5531 3.57481 14.0287 3.57481ZM14.7122 7.19008V9.30139H11.4203V19.1769H8.09268V9.29069L4.83663 9.30015V7.19872L8.10132 7.18926L8.09268 6.77078C8.04988 4.66729 8.34985 3.78261 8.36343 3.74023C9.1724 0.661534 12.2614 0.81625 12.3939 0.82448L15.1627 0.825303V2.75226H14.0287C12.1058 2.75226 11.4207 4.00893 11.4207 5.18494V7.19008H14.7122Z" fill="#9B8C8F"/>
</g>
<defs>
<clipPath id="clip0">
<rect width="20" height="20" fill="white"/>
</clipPath>
</defs>
</svg>
