<svg width="121" height="121" viewBox="0 0 121 121" fill="none" xmlns="http://www.w3.org/2000/svg">
<path d="M40.7789 92.6176C40.7482 92.4663 40.7033 92.3174 40.6442 92.1733C40.5851 92.0315 40.5119 91.8944 40.4268 91.7668C40.3417 91.6368 40.2424 91.5163 40.1337 91.4076C40.025 91.2989 39.9045 91.1996 39.7745 91.1145C39.6469 91.0294 39.5098 90.9562 39.3657 90.8971C39.2239 90.838 39.075 90.7908 38.9237 90.7624C38.6189 90.7009 38.3046 90.7009 38.0021 90.7624C37.8508 90.7908 37.7019 90.838 37.5578 90.8971C37.416 90.9562 37.2789 91.0294 37.1513 91.1145C37.0213 91.1996 36.9008 91.2989 36.792 91.4076C36.6833 91.5163 36.5841 91.6368 36.499 91.7668C36.4116 91.8944 36.3407 92.0315 36.2816 92.1733C36.2225 92.3174 36.1752 92.4663 36.1469 92.6176C36.1162 92.7688 36.0996 92.9248 36.0996 93.0784C36.0996 93.232 36.1162 93.388 36.1469 93.5392C36.1752 93.6905 36.2225 93.8394 36.2816 93.9812C36.3407 94.1253 36.4116 94.2624 36.499 94.39C36.5841 94.52 36.6833 94.6405 36.792 94.7492C36.9008 94.858 37.0213 94.9572 37.1513 95.0423C37.2789 95.1276 37.416 95.2009 37.5578 95.2599C37.7019 95.319 37.8508 95.3663 38.0021 95.3947C38.1533 95.4254 38.3093 95.4419 38.4629 95.4419C38.6165 95.4419 38.7725 95.4254 38.9237 95.3947C39.075 95.3663 39.2239 95.319 39.3657 95.2599C39.5098 95.2009 39.6469 95.1274 39.7745 95.0423C39.9045 94.9572 40.025 94.858 40.1337 94.7492C40.2424 94.6405 40.3417 94.52 40.4268 94.39C40.5119 94.2624 40.5851 94.1253 40.6442 93.9812C40.7033 93.8394 40.7482 93.6905 40.7789 93.5392C40.8096 93.388 40.8262 93.232 40.8262 93.0784C40.8262 92.9248 40.8096 92.7688 40.7789 92.6176Z" fill="#F3828C"/>
<path d="M108.709 93.3453C108.7 93.3217 108.691 93.2983 108.681 93.2752C106.506 88.1854 101.404 86.3042 95.3669 88.3662L78.9024 92.9192C77.9505 90.0365 75.5761 87.5834 72.2188 86.3375C72.198 86.33 72.1772 86.3224 72.1562 86.3153L54.0579 80.1727C52.5516 78.2256 47.833 73.2433 38.9984 73.2433C32.8243 73.2433 27.3625 77.4788 24.2378 82.0954H2.36328C1.05804 82.0954 0 83.1535 0 84.4587V114.254C0 115.559 1.05804 116.618 2.36328 116.618H16.4146C17.7199 116.618 18.7779 115.559 18.7779 114.254V112.214H25.3675C26.6727 112.214 27.7307 111.156 27.7307 109.85V109.17C31.572 109.505 32.8354 110.234 36.3633 112.268C39.0764 113.833 43.1769 116.197 50.5612 119.517C50.5955 119.533 50.6302 119.548 50.665 119.561C52.0822 120.119 54.8527 120.995 58.2684 120.995C60.6458 120.995 63.3364 120.57 66.0981 119.318L102.491 106.288C102.555 106.265 102.619 106.239 102.681 106.21C106.16 104.61 111.342 100.1 108.709 93.3453ZM14.0514 111.891H4.72656V86.8217H14.0514V111.891ZM23.0042 107.487H18.7779V86.8217H23.0042V107.487ZM100.793 101.875L64.4169 114.899C64.385 114.911 64.3417 114.928 64.3103 114.94C64.2784 114.953 64.2465 114.967 64.2151 114.981C59.1489 117.31 54.3333 115.916 52.4459 115.182C45.3131 111.972 41.5061 109.777 38.7245 108.173C34.8572 105.943 32.9938 104.868 27.7307 104.434V85.3995C29.9709 81.7279 34.3151 77.9696 38.9986 77.9696C47.0305 77.9696 50.4338 83.1936 50.5676 83.4044C50.8562 83.8738 51.2997 84.2276 51.8213 84.4046L70.6035 90.7793C73.6032 91.9052 75.1885 94.4741 74.4599 97.0358C74.1236 98.2189 73.3465 99.2001 72.2722 99.7988C71.2071 100.392 69.9758 100.539 68.8022 100.214L47.6289 93.5044C46.3839 93.11 45.0562 93.7991 44.662 95.0434C44.2676 96.2876 44.9567 97.6158 46.201 98.0102L67.4112 104.732C67.4336 104.739 67.4561 104.746 67.4788 104.752C68.3255 104.993 69.1877 105.112 70.0446 105.112C71.6133 105.112 73.1648 104.712 74.5729 103.928C76.7502 102.715 78.3246 100.726 79.0061 98.3286C79.0605 98.1371 79.1087 97.9457 79.1505 97.7543L96.8948 92.8387C99.4575 91.9633 102.822 91.6478 104.319 95.0975C105.87 99.1474 101.84 101.375 100.793 101.875Z" fill="#F3828C"/>
<path d="M84.8555 31.0873C84.8248 30.936 84.7799 30.7872 84.7184 30.643C84.6593 30.5012 84.5884 30.3641 84.501 30.2365C84.4159 30.1065 84.3167 29.986 84.208 29.8773C84.0992 29.7686 83.9787 29.6693 83.8487 29.5842C83.7211 29.4992 83.584 29.4259 83.4422 29.3668C83.2981 29.3077 83.1492 29.2605 83.0003 29.2321C82.6954 29.1707 82.3811 29.1707 82.0763 29.2321C81.925 29.2605 81.7761 29.3077 81.6343 29.3668C81.4902 29.4259 81.3531 29.4992 81.2255 29.5842C81.0955 29.6693 80.975 29.7686 80.8663 29.8773C80.7576 29.986 80.6583 30.1065 80.5732 30.2365C80.4881 30.3641 80.4149 30.5012 80.3558 30.643C80.2967 30.7872 80.2495 30.936 80.2211 31.0873C80.1904 31.2385 80.1738 31.3945 80.1738 31.5481C80.1738 31.7017 80.1904 31.8577 80.2211 32.009C80.2495 32.1602 80.2967 32.3091 80.3558 32.4509C80.4149 32.5951 80.4881 32.7321 80.5732 32.8598C80.6583 32.9897 80.7576 33.1103 80.8663 33.219C80.975 33.3277 81.0955 33.4269 81.2255 33.512C81.3531 33.5971 81.4902 33.6704 81.6343 33.7294C81.7761 33.7885 81.925 33.8334 82.0763 33.8642C82.2275 33.8949 82.3835 33.9114 82.5371 33.9114C82.6907 33.9114 82.8467 33.8949 83.0003 33.8642C83.1492 33.8334 83.2981 33.7885 83.4422 33.7294C83.584 33.6704 83.7211 33.5971 83.8487 33.512C83.9787 33.4269 84.0992 33.3277 84.208 33.219C84.3167 33.1103 84.4159 32.9897 84.501 32.8598C84.5884 32.7321 84.6593 32.5951 84.7184 32.4509C84.7799 32.3091 84.8248 32.1602 84.8555 32.009C84.8862 31.8577 84.9004 31.7017 84.9004 31.5481C84.9004 31.3945 84.8862 31.2385 84.8555 31.0873Z" fill="#F3828C"/>
<path d="M118.638 8.0094H104.586C103.281 8.0094 102.223 9.06744 102.223 10.3727V12.4131H95.6334C94.3281 12.4131 93.2701 13.4712 93.2701 14.7764V15.4566C89.4288 15.1212 88.1654 14.3929 84.6377 12.3585C81.9247 10.7941 77.8241 8.42959 70.4396 5.10941C70.4053 5.09382 70.3708 5.0794 70.3356 5.06569C67.9319 4.11991 61.6321 2.25906 54.9036 5.3084L45.3938 8.71342L37.3778 0.697639C36.4549 -0.225222 34.9585 -0.225222 34.0356 0.697639L7.71859 27.0144C6.86734 27.8659 6.70404 29.3423 7.71859 30.3568L52.6888 75.327C53.4084 76.0469 55.0934 76.2645 56.0312 75.327L80.0574 51.3009C80.6821 51.3548 81.3303 51.3839 82.0022 51.3839C88.1765 51.3839 93.638 47.1484 96.7625 42.532H118.638C119.943 42.532 121.001 41.4739 121.001 40.1687V10.3727C121.001 9.06744 119.943 8.0094 118.638 8.0094ZM35.7065 5.71087L41.0928 11.0973C39.4917 12.0875 37.6406 12.6173 35.7065 12.6173C33.7721 12.6173 31.9212 12.0877 30.3201 11.0973L35.7065 5.71087ZM18.1184 34.0721L12.7321 28.6855L18.1184 23.2991C19.1087 24.9002 19.6385 26.7514 19.6385 28.6855C19.6385 30.6196 19.1089 32.4708 18.1184 34.0721ZM54.3601 70.3135L48.9746 64.9281C52.2627 62.899 56.457 62.899 59.7453 64.9281L54.3601 70.3135ZM63.1503 61.5235C57.9279 57.7352 50.7922 57.7352 45.5698 61.5235L21.5232 37.4767C23.3687 34.9385 24.3651 31.8896 24.3651 28.6855C24.3651 25.4811 23.3689 22.4325 21.5232 19.8943L26.9155 14.5023C29.4537 16.3478 32.5023 17.3441 35.7067 17.3441C38.9111 17.3441 41.9597 16.3478 44.4979 14.5023L49.6094 19.6138C48.5065 19.7766 47.4309 20.1401 46.428 20.699C44.734 21.6429 43.4048 23.0564 42.5772 24.7665C39.9114 25.2602 37.4435 26.5508 35.5075 28.4865C30.2551 33.7392 30.2551 42.2855 35.5077 47.5381C38.1338 50.1642 41.5835 51.4775 45.0334 51.4775C48.4831 51.4775 51.933 50.1644 54.5593 47.5381C56.2679 45.8295 57.465 43.7295 58.0645 41.4408L66.0439 44.1489C65.1456 48.3102 66.0656 52.6879 68.5473 56.1265L63.1503 61.5235ZM48.782 38.2894C48.8028 38.297 48.8236 38.3045 48.8446 38.3116L53.5703 39.9156C53.2134 41.5262 52.4059 43.007 51.2171 44.196C47.8074 47.6052 42.2594 47.6057 38.8501 44.196C35.4403 40.7865 35.4403 35.2387 38.8501 31.8289C39.6725 31.006 40.6431 30.363 41.7007 29.9269C42.1369 33.5574 44.751 36.7935 48.782 38.2894ZM71.9526 52.721C71.0403 51.2345 70.5242 49.5379 70.4427 47.8063C71.5747 48.6248 72.9582 49.4266 74.6106 50.063L71.9526 52.721ZM93.2698 39.2265C91.0299 42.8985 86.6857 46.6568 82.0022 46.6568C81.1259 46.6568 80.3046 46.5945 79.5368 46.4834C79.5337 46.4829 79.5307 46.4824 79.5276 46.482C74.4239 45.7406 71.6784 42.8399 70.7735 41.6914C70.7253 41.6205 70.52 41.3518 70.4895 41.3071C70.2141 40.8151 69.7628 40.4194 69.1871 40.224L50.3971 33.8467C47.3986 32.7213 45.8135 30.1536 46.54 27.5927C46.5404 27.5911 46.5409 27.5894 46.5414 27.5878C46.5421 27.5859 46.5426 27.5837 46.543 27.5819C46.8808 26.4026 47.6564 25.4244 48.7284 24.8272C49.7933 24.2338 51.0243 24.0866 52.1984 24.412L73.3717 31.1216C74.6162 31.5165 75.9444 30.8269 76.3386 29.5826C76.7328 28.3383 76.0439 27.0102 74.7996 26.6157L57.9601 21.2795L57.8131 21.1325C57.8116 21.131 57.8102 21.1294 57.8086 21.128L49.0904 12.4098L56.5839 9.72656C56.6092 9.71734 56.6404 9.70576 56.6655 9.6956C56.6718 9.693 56.6841 9.68827 56.6903 9.68567C56.7224 9.67267 56.7541 9.65897 56.7855 9.64455C61.8514 7.31625 66.6669 8.70987 68.5544 9.44391C75.6875 12.6535 79.4948 14.8487 82.2763 16.4527C86.1436 18.6829 88.007 19.7575 93.2698 20.1921V39.2265ZM102.223 37.8049H97.9966V17.1397H102.223V37.8049ZM116.274 37.8049H106.949V12.736H116.274V37.8049Z" fill="#F3828C"/>
</svg>
