<svg width="7" height="11" viewBox="0 0 7 11" fill="none" xmlns="http://www.w3.org/2000/svg">
<path d="M0.890281 9.48339C0.80233 9.56578 0.749768 9.68123 0.750001 9.80516L0.750001 9.80519L5.93901 5.63826C6.02033 5.56185 6.02033 5.43801 5.93901 5.36161L1.35617 1.05738C1.27472 0.980874 1.14266 0.980874 1.0612 1.05738C0.979749 1.13388 0.979749 1.25791 1.0612 1.33441L5.31437 5.32863L5.13178 5.50011M0.890281 9.48339L1.0612 9.66583L0.890062 9.48359L0.890281 9.48339ZM0.890281 9.48339L5.13178 5.50011M5.13178 5.50011L5.31437 5.67159L1.0612 9.66583C1.02193 9.70262 0.999903 9.7526 1 9.8047C1.00022 9.91275 1.09364 10.0002 1.20869 10V10.25C1.20883 10.25 1.20898 10.25 1.20913 10.25C1.32589 10.2499 1.44075 10.2063 1.52764 10.1244M5.13178 5.50011L0.890063 1.51665L0.890054 1.51664C0.703466 1.3414 0.703466 1.05039 0.890054 0.875149C1.06772 0.708284 1.34966 0.708284 1.52732 0.875149L6.11016 5.17938L6.11018 5.1794C6.29662 5.35455 6.29659 5.64532 6.11021 5.82045L6.11016 5.82049L1.52764 10.1244M1.52764 10.1244L1.52732 10.1247L1.35617 9.94248L1.52764 10.1244Z" fill="#53BDA5" stroke="#53BDA5" stroke-width="0.5"/>
</svg>
