<svg width="20" height="22" viewBox="0 0 20 22" fill="none" xmlns="http://www.w3.org/2000/svg">
<path d="M7.00165 12.4754C4.79923 11.1402 3.58158 9.30507 3.47845 6.80568C3.40526 5.02423 3.98746 3.46421 5.17517 2.14574C7.55391 -0.497915 11.6061 -0.736112 14.2809 1.63915C15.981 3.14885 16.7096 5.08127 16.4567 7.35924C16.2105 9.6305 14.9729 11.271 12.9934 12.4788C14.5171 13.0055 15.7947 13.7369 16.8826 14.7803C18.5726 16.3973 19.594 18.3666 19.95 20.6849C19.9766 20.8526 19.9999 21.0271 19.9999 21.1982C20.0065 21.6611 19.7271 22.0033 19.3179 22C18.882 21.9966 18.6192 21.7551 18.5693 21.3122C18.4396 20.1548 18.1135 19.0611 17.5613 18.0412C15.8013 14.7903 12.1018 12.9552 8.62518 13.5993C4.76263 14.3139 1.93809 17.2696 1.42574 21.0908C1.38582 21.3793 1.21615 21.7081 0.999899 21.8926C0.866822 22.0067 0.454286 21.9798 0.311228 21.8524C0.128248 21.688 -0.0181359 21.3525 0.00182559 21.1042C0.128248 19.5207 0.647246 18.058 1.49894 16.7227C2.80308 14.6863 4.61292 13.3007 7.00165 12.4754ZM9.99586 1.48147C7.19461 1.48147 4.92898 3.74937 4.919 6.57084C4.90902 9.37552 7.18795 11.6938 9.96592 11.7038C12.7738 11.7139 15.0761 9.40236 15.0694 6.57419C15.0594 3.75608 12.7971 1.48482 9.99586 1.48147Z" fill="#A1A1A1"/>
</svg>
