<svg width="21" height="21" viewBox="0 0 21 21" fill="none" xmlns="http://www.w3.org/2000/svg">
<g clip-path="url(#clip0)">
<path d="M20.9222 10.2514C20.7568 10.0108 16.7825 4.37482 10.4999 4.37482C5.10898 4.37482 0.305151 9.97842 0.103023 10.2173C-0.0343409 10.3801 -0.0343409 10.6189 0.103023 10.7825C0.305151 11.0214 5.10898 16.625 10.4999 16.625C15.8909 16.625 20.6947 11.0214 20.8968 10.7825C21.0237 10.6321 21.0351 10.4142 20.9222 10.2514ZM10.4999 15.75C6.17827 15.75 2.06918 11.6287 1.02531 10.4999C2.06746 9.37032 6.17216 5.24986 10.4999 5.24986C15.5566 5.24986 19.1258 9.36507 19.9973 10.4763C18.9911 11.5692 14.8584 15.75 10.4999 15.75Z" fill="#8D8D8D"/>
<path d="M10.5 6.99984C8.56977 6.99984 7 8.56961 7 10.4999C7 12.4302 8.56977 13.9999 10.5 13.9999C12.4303 13.9999 14.0001 12.4302 14.0001 10.4999C14.0001 8.56961 12.4303 6.99984 10.5 6.99984ZM10.5 13.125C9.05278 13.125 7.875 11.9472 7.875 10.4999C7.875 9.05266 9.05278 7.87488 10.5 7.87488C11.9473 7.87488 13.1251 9.05266 13.1251 10.4999C13.1251 11.9472 11.9473 13.125 10.5 13.125Z" fill="#A1A1A1"/>
</g>
<defs>
<clipPath id="clip0">
<rect width="21" height="21" fill="white"/>
</clipPath>
</defs>
</svg>
