<svg width="24" height="23" viewBox="0 0 24 23" fill="none" xmlns="http://www.w3.org/2000/svg">
<path d="M23.9956 22.2317L22.2604 6.97525C22.2206 6.62532 21.9197 6.36071 21.5617 6.36071H17.2265V5.13927C17.2265 2.30548 14.8819 0 12 0C9.11808 0 6.77345 2.30548 6.77345 5.13927V6.36071H2.43608C2.07795 6.36071 1.77702 6.62537 1.73731 6.97535L0.00435151 22.2318C-0.0178672 22.4274 0.0456951 22.6229 0.179101 22.7695C0.312507 22.9162 0.503053 23 0.703161 23H23.2969C23.497 23 23.6876 22.9162 23.821 22.7695C23.9544 22.6229 24.0179 22.4273 23.9956 22.2317ZM8.17969 5.13927C8.17969 3.06794 9.89348 1.38276 12 1.38276C14.1065 1.38276 15.8203 3.06794 15.8203 5.13927V6.36071H8.17969V5.13927ZM1.48916 21.6172L3.06504 7.74347H6.77345V9.2452C5.95506 9.5306 5.3672 10.2991 5.3672 11.2004C5.3672 12.3441 6.31347 13.2745 7.47657 13.2745C8.63968 13.2745 9.58594 12.3441 9.58594 11.2004C9.58594 10.299 8.99808 9.5306 8.17969 9.2452V7.74347H15.8203V9.2452C15.0019 9.5306 14.414 10.2991 14.414 11.2004C14.414 12.3441 15.3603 13.2745 16.5234 13.2745C17.6865 13.2745 18.6328 12.3441 18.6328 11.2004C18.6328 10.299 18.0449 9.5306 17.2265 9.2452V7.74347H20.9328L22.5107 21.6172H1.48916ZM7.47657 10.509C7.86427 10.509 8.17969 10.8192 8.17969 11.2004C8.17969 11.5817 7.86427 11.8918 7.47657 11.8918C7.08887 11.8918 6.77345 11.5817 6.77345 11.2004C6.77345 10.8192 7.08882 10.509 7.47657 10.509ZM16.5234 10.509C16.9111 10.509 17.2265 10.8192 17.2265 11.2004C17.2265 11.5817 16.9111 11.8918 16.5234 11.8918C16.1357 11.8918 15.8203 11.5817 15.8203 11.2004C15.8203 10.8192 16.1357 10.509 16.5234 10.509Z" fill="#A2A2A2"/>
</svg>
