<svg width="12" height="12" viewBox="0 0 12 12" fill="none" xmlns="http://www.w3.org/2000/svg">
<path d="M0 4.87501C0 5.1755 0.119508 5.45551 0.3255 5.66202C0.0919924 5.91751 -0.0270004 6.26002 0.00550747 6.61651C0.0640078 7.25202 0.636516 7.75002 1.3095 7.75002L4.398 7.75002C4.245 8.21452 4.00001 9.06601 4.00001 9.75001C4.00001 10.8345 4.9215 11.75 5.50001 11.75C6.01901 11.75 6.39052 11.4575 6.40601 11.4455C6.46552 11.398 6.50002 11.326 6.50002 11.25V9.55452L7.94051 6.43501L8.00002 6.40452V6.50002C8.00002 6.63802 8.11202 6.75003 8.25002 6.75003L10.75 6.75003C11.4395 6.75001 12 6.1895 12 5.50002L12 1.50001C12 0.8105 11.4395 0.250015 10.75 0.250015H9.25001C8.70952 0.250015 8.24752 0.595016 8.07352 1.07652C7.6575 0.862508 7.09751 0.750008 6.75 0.750008L2.16049 0.750008C1.61599 0.750008 1.13948 1.11701 1.0275 1.62301C0.970008 1.88401 1.0035 2.14651 1.1175 2.37451C0.7485 2.56002 0.499992 2.94151 0.499992 3.37501C0.499992 3.55201 0.540492 3.72151 0.616993 3.87451C0.247993 4.06051 0 4.44151 0 4.87501ZM1.0545 4.25802C1.15099 4.24651 1.23251 4.18102 1.26349 4.08852C1.29398 3.99601 1.26848 3.89452 1.19749 3.82752C1.07048 3.70801 0.999984 3.54702 0.999984 3.37501C0.999984 3.05951 1.23848 2.79451 1.55398 2.75801C1.65047 2.74651 1.73198 2.68102 1.76297 2.58852C1.79346 2.49601 1.76796 2.39452 1.69697 2.32752C1.53246 2.17252 1.46646 1.95502 1.51596 1.73101C1.57746 1.45201 1.84847 1.25 2.16047 1.25L6.75 1.25C7.15601 1.25 7.83701 1.4405 8.073 1.67701C8.14451 1.748 8.25251 1.769 8.34551 1.73101C8.439 1.6925 8.50001 1.601 8.50001 1.50001C8.50001 1.0865 8.8365 0.750008 9.25001 0.750008H10.75C11.1635 0.750008 11.5 1.0865 11.5 1.50001L11.5 5.50002C11.5 5.91352 11.1635 6.25002 10.75 6.25002H8.50001V6.00001C8.50001 5.9135 8.45501 5.83301 8.38102 5.78701C8.30801 5.74302 8.21602 5.73852 8.13802 5.77651L7.63802 6.02652C7.58752 6.05152 7.54702 6.09352 7.52302 6.14502L6.02302 9.39502C6.00802 9.42802 6.00002 9.46402 6.00002 9.50002V11.1145C5.89601 11.172 5.71549 11.25 5.50001 11.25C5.226 11.25 4.5 10.569 4.5 9.75001C4.5 8.87 4.97899 7.60152 4.98349 7.589C5.01248 7.5125 5.0025 7.42599 4.956 7.358C4.90901 7.2905 4.83199 7.25 4.75001 7.25H1.3095C0.8925 7.25 0.5385 6.9515 0.503508 6.5705C0.477 6.2855 0.614016 6.01449 0.8595 5.86299C0.936 5.816 0.981492 5.73099 0.978 5.6405C0.974507 5.55001 0.9225 5.46901 0.842507 5.4275C0.631007 5.31999 0.500016 5.108 0.500016 4.87501C0.499992 4.55952 0.738492 4.29451 1.0545 4.25802Z" fill="#F03D3D"/>
<path d="M8.24999 6.25C8.38799 6.25 8.5 6.13799 8.5 5.99999V1.49999C8.5 1.36199 8.38799 1.24998 8.24999 1.24998C8.11199 1.24998 7.99998 1.36199 7.99998 1.49999L7.99998 5.99999C7.99998 6.13799 8.11199 6.25 8.24999 6.25Z" fill="#F03D3D"/>
</svg>
