<svg width="12" height="12" viewBox="0 0 12 12" fill="none" xmlns="http://www.w3.org/2000/svg">
<path d="M12 7.12499C12 6.8245 11.8805 6.54449 11.6745 6.33798C11.908 6.08249 12.027 5.73998 11.9945 5.38349C11.936 4.74798 11.3635 4.24998 10.6905 4.24998H7.602C7.755 3.78548 7.99999 2.93399 7.99999 2.24999C7.99999 1.16549 7.0785 0.25 6.49999 0.25C5.98099 0.25 5.60948 0.5425 5.59399 0.5545C5.53448 0.602008 5.49998 0.674008 5.49998 0.749992V2.44548L4.05949 5.56499L3.99998 5.59548V5.49998C3.99998 5.36198 3.88798 5.24997 3.74998 5.24997H1.24999C0.560508 5.24999 0 5.8105 0 6.49998V10.5C0 11.1895 0.560508 11.75 1.24999 11.75H2.74999C3.29048 11.75 3.75248 11.405 3.92648 10.9235C4.3425 11.1375 4.90249 11.25 5.25 11.25H9.83951C10.384 11.25 10.8605 10.883 10.9725 10.377C11.03 10.116 10.9965 9.85349 10.8825 9.62549C11.2515 9.43998 11.5 9.05849 11.5 8.62499C11.5 8.44799 11.4595 8.27849 11.383 8.12549C11.752 7.93949 12 7.55849 12 7.12499ZM10.9455 7.74198C10.849 7.75349 10.7675 7.81898 10.7365 7.91148C10.706 8.00399 10.7315 8.10548 10.8025 8.17248C10.9295 8.29199 11 8.45298 11 8.62499C11 8.94049 10.7615 9.20549 10.446 9.24199C10.3495 9.25349 10.268 9.31898 10.237 9.41148C10.2065 9.50399 10.232 9.60548 10.303 9.67248C10.4675 9.82748 10.5335 10.045 10.484 10.269C10.4225 10.548 10.1515 10.75 9.83953 10.75H5.25C4.84399 10.75 4.16299 10.5595 3.927 10.323C3.85549 10.252 3.74749 10.231 3.65449 10.269C3.561 10.3075 3.49999 10.399 3.49999 10.5C3.49999 10.9135 3.1635 11.25 2.74999 11.25H1.24999C0.836484 11.25 0.499992 10.9135 0.499992 10.5V6.49998C0.499992 6.08648 0.836484 5.74998 1.24999 5.74998H3.49999V5.99999C3.49999 6.0865 3.54499 6.16699 3.61898 6.21299C3.69199 6.25698 3.78398 6.26148 3.86198 6.22349L4.36198 5.97348C4.41248 5.94848 4.45298 5.90648 4.47698 5.85498L5.97698 2.60498C5.99198 2.57198 5.99998 2.53598 5.99998 2.49998V0.885484C6.10399 0.827992 6.28451 0.749992 6.49999 0.749992C6.774 0.749992 7.5 1.43099 7.5 2.24999C7.5 3.13 7.02101 4.39848 7.01651 4.411C6.98752 4.4875 6.9975 4.57401 7.044 4.642C7.09099 4.7095 7.16801 4.75 7.24999 4.75H10.6905C11.1075 4.75 11.4615 5.0485 11.4965 5.4295C11.523 5.7145 11.386 5.98551 11.1405 6.13701C11.064 6.184 11.0185 6.26901 11.022 6.3595C11.0255 6.44999 11.0775 6.53099 11.1575 6.5725C11.369 6.68001 11.5 6.892 11.5 7.12499C11.5 7.44048 11.2615 7.70549 10.9455 7.74198Z" fill="#09C74A"/>
<path d="M3.75001 5.75C3.61201 5.75 3.5 5.86201 3.5 6.00001V10.5C3.5 10.638 3.61201 10.75 3.75001 10.75C3.88801 10.75 4.00002 10.638 4.00002 10.5V6.00001C4.00002 5.86201 3.88801 5.75 3.75001 5.75Z" fill="#09C74A"/>
</svg>
