<svg width="22" height="23" viewBox="0 0 22 23" fill="none" xmlns="http://www.w3.org/2000/svg">
<path d="M22 4.17693H16.6683C17.2533 3.32247 17.3098 2.16883 16.7193 1.2416C15.927 -0.00282681 14.2637 -0.374331 13.0124 0.413644C12.6958 0.613097 12.1673 1.07943 11.2376 2.8184C11.1545 2.97428 11.075 3.12701 11 3.27391C10.925 3.12701 10.8455 2.97428 10.7624 2.8184C9.83275 1.07939 9.30425 0.613097 8.98756 0.413644C7.73629 -0.374331 6.07301 -0.00278191 5.28067 1.2416C4.89672 1.8445 4.77201 2.5601 4.92925 3.25643C5.00468 3.5911 5.1411 3.90201 5.32991 4.17693H0V10.7003H0.792338V23H21.2077V10.7003H22V4.17693ZM13.737 1.5525C13.9529 1.41639 14.1978 1.34676 14.4472 1.34676C14.5447 1.34676 14.6436 1.35754 14.7412 1.3791C15.0881 1.45682 15.384 1.66391 15.5747 1.96268C15.9672 2.57951 15.782 3.39933 15.1618 3.78975C14.7887 4.02514 13.4208 4.15631 12.0589 4.17652C12.6597 2.9608 13.3639 1.78744 13.737 1.5525ZM6.42539 1.96259C6.61601 1.66386 6.91192 1.45677 7.25883 1.37901C7.3564 1.35745 7.45532 1.34667 7.55289 1.34667C7.80223 1.34667 8.04706 1.4163 8.26302 1.55241C8.63613 1.78735 9.34039 2.96076 9.9412 4.17643C9.26043 4.1661 8.5779 4.12837 8.0191 4.06368C7.46029 3.99899 7.02485 3.90735 6.83829 3.78966C6.53791 3.60054 6.32917 3.3063 6.25148 2.96125C6.17329 2.61625 6.23517 2.26137 6.42539 1.96259ZM8.25801 21.6523H2.1475V10.7003H8.25801V21.6523ZM8.25801 9.3526H1.35521V5.52463H8.25805V9.3526H8.25801ZM12.3868 21.6523H9.61322V5.52463H12.3868V21.6523ZM19.8525 21.6523H13.742V10.7003H19.8525V21.6523ZM20.6448 9.3526H13.742V5.52463H20.6448V9.3526Z" fill="#A2A2A2"/>
</svg>
