<svg width="12" height="12" viewBox="0 0 12 12" fill="none" xmlns="http://www.w3.org/2000/svg">
<path d="M4.714 2.58287V0.428428C4.71393 0.191724 4.52199 -0.000105831 4.28528 -3.04954e-05C4.16389 -5.38355e-06 4.04822 0.0515241 3.96695 0.141701L0.109695 4.42746C-0.0313624 4.58456 -0.0370127 4.82097 0.0964101 4.98462L3.95369 9.69894C4.10357 9.88213 4.37358 9.90915 4.5568 9.75929C4.65604 9.6781 4.71373 9.55674 4.714 9.42851V7.29293C8.09985 7.40307 10.2128 8.85036 11.1651 11.7073C11.2235 11.882 11.3871 11.9999 11.5714 12C11.5945 12 11.6176 11.9982 11.6404 11.9944C11.8477 11.9606 12 11.7815 12 11.5714C12 6.52448 8.96173 2.81687 4.714 2.58287ZM4.28541 6.42848C4.0487 6.42848 3.85681 6.62036 3.85681 6.85706V8.22849L0.992576 4.72745L3.85684 1.54528V2.99986C3.85684 3.23656 4.04872 3.42844 4.28543 3.42844C7.65413 3.42844 10.1751 5.75947 10.9183 9.31621C9.5386 7.39792 7.31724 6.42848 4.28541 6.42848Z" fill="#A1A1A1"/>
</svg>
